<svg xmlns="http://www.w3.org/2000/svg" width="1280" height="720" viewBox="0 0 1280 720" role="img" aria-label="Matt and Steff gallery desktop screenshot placeholder">
  <defs>
    <linearGradient id="bg" x1="0" y1="0" x2="1" y2="1">
      <stop offset="0%" stop-color="#f5f1e7" />
      <stop offset="100%" stop-color="#f2e6cd" />
    </linearGradient>
  </defs>
  <rect width="1280" height="720" fill="url(#bg)" />
  <rect x="56" y="56" width="1168" height="608" rx="28" fill="#ffffff" opacity="0.95" />
  <rect x="112" y="120" width="240" height="28" rx="14" fill="#d8c6a0" />
  <rect x="112" y="176" width="1056" height="420" rx="18" fill="#f4efe6" />
  <g fill="#c9b289">
    <rect x="152" y="216" width="200" height="160" rx="10" />
    <rect x="376" y="216" width="200" height="160" rx="10" />
    <rect x="600" y="216" width="200" height="160" rx="10" />
    <rect x="824" y="216" width="200" height="160" rx="10" />
    <rect x="152" y="400" width="200" height="160" rx="10" />
    <rect x="376" y="400" width="200" height="160" rx="10" />
    <rect x="600" y="400" width="200" height="160" rx="10" />
    <rect x="824" y="400" width="200" height="160" rx="10" />
  </g>
</svg>
